<?xml version="1.0" encoding="UTF-8"?>
<svg id="_레이어_1" data-name="레이어 1" xmlns="http://www.w3.org/2000/svg" viewBox="0 0 2314.73 263.6">
  <defs>
    <style>
      .cls-1 {
        fill: #050101;
      }

      .cls-2 {
        fill: #050202;
      }
    </style>
  </defs>
  <g>
    <polygon class="cls-1" points="1212.2 262.54 1172.19 263.06 1172.19 38.78 1007.95 38.71 1008.31 .04 1376.77 .02 1377.1 38.69 1212.39 38.7 1212.2 262.54"/>
    <g>
      <path class="cls-1" d="M2314.73,262.72l-56.08.19-188.65-162.47-58.8-52.04c-8.74-7.74-18.23-13.17-29.58-8.77l.1,223.52-38.8.18L1942.87,0l66,.16c19.17,9.46,34.48,21.07,50.1,35.57l216.55,185.22.14-220.44,39.01-.02.06,262.23Z"/>
      <g>
        <polygon class="cls-1" points="1529.55 225.97 1829.23 226.02 1829.19 263.46 1490.31 263.47 1490.27 0 1829.11 .14 1828.74 38.78 1529.52 38.55 1529.55 225.97"/>
        <polygon class="cls-2" points="1725.6 152.37 1578.16 152.38 1591.61 124.25 1739.03 124.22 1725.6 152.37"/>
      </g>
    </g>
  </g>
  <g>
    <path class="cls-1" d="M378.93,262.77l-57.37.63L140.07,111.32l-74.93-63.95c-7.11-6.07-14.21-10.43-24.98-8.64l.04,224.33-40.11.35L0,.21l64.02,1.25c14.92.29,25.82,15.7,38.38,24.21l236.24,195.79.66-220.99,39.49-.11.14,262.41Z"/>
    <path class="cls-1" d="M911.5,60.51C894.73,24.49,858.7.35,817.78.37l-212.05.11c-56.73.03-100.96,53.46-100.93,111.16l.02,44.68c.01,29.35,10.82,58.76,32.51,79.41,15.12,14.39,35.74,26.99,57.46,27.07l237.31.8c39.38-6.18,69.16-30.94,82.46-66.54,8.11-21.71,8.76-43.28,8.66-66.45-.1-24.48-1.12-47.34-11.72-70.1ZM822.84,225.91l-212.89-.18c-35.07-.03-61.5-27.93-65.08-62.2-6.91-46.55.3-120.45,60.7-123.75,0,0,214.48-.32,214.48-.32,33.52-.05,58.04,29.94,62.12,61.34,7.32,50.05,2.55,116.62-59.32,125.11Z"/>
  </g>
</svg>